<mxfile host="app.diagrams.net" modified="2023-10-03T15:30:55.362Z" agent="Mozilla/5.0 (Windows NT 10.0; Win64; x64) AppleWebKit/537.36 (KHTML, like Gecko) Chrome/117.0.0.0 Safari/537.36" etag="oZrxHOhYVpKo4ZJLGcIG" version="21.7.5" type="github">
  <diagram id="C5RBs43oDa-KdzZeNtuy" name="Page-1">
    <mxGraphModel dx="2200" dy="759" grid="1" gridSize="10" guides="1" tooltips="1" connect="1" arrows="1" fold="1" page="1" pageScale="1" pageWidth="827" pageHeight="1169" math="0" shadow="0">
      <root>
        <mxCell id="WIyWlLk6GJQsqaUBKTNV-0" />
        <mxCell id="WIyWlLk6GJQsqaUBKTNV-1" parent="WIyWlLk6GJQsqaUBKTNV-0" />
        <mxCell id="zkfFHV4jXpPFQw0GAbJ--0" value="DemandeHabilitation" style="swimlane;fontStyle=2;align=center;verticalAlign=top;childLayout=stackLayout;horizontal=1;startSize=30;horizontalStack=0;resizeParent=1;resizeLast=0;collapsible=1;marginBottom=0;rounded=0;shadow=0;strokeWidth=1;direction=east;fillColor=#dae8fc;strokeColor=#6c8ebf;" parent="WIyWlLk6GJQsqaUBKTNV-1" vertex="1">
          <mxGeometry x="130" y="120" width="210" height="560" as="geometry">
            <mxRectangle x="230" y="140" width="160" height="26" as="alternateBounds" />
          </mxGeometry>
        </mxCell>
        <mxCell id="zkfFHV4jXpPFQw0GAbJ--18" value="- id" style="text;align=left;verticalAlign=top;spacingLeft=4;spacingRight=4;overflow=hidden;rotatable=0;points=[[0,0.5],[1,0.5]];portConstraint=eastwest;" parent="zkfFHV4jXpPFQw0GAbJ--0" vertex="1">
          <mxGeometry y="30" width="210" height="26" as="geometry" />
        </mxCell>
        <mxCell id="B4z7yMbb7oqRhIw1RZV_-14" value="- initiateur" style="text;align=left;verticalAlign=top;spacingLeft=4;spacingRight=4;overflow=hidden;rotatable=0;points=[[0,0.5],[1,0.5]];portConstraint=eastwest;" vertex="1" parent="zkfFHV4jXpPFQw0GAbJ--0">
          <mxGeometry y="56" width="210" height="26" as="geometry" />
        </mxCell>
        <mxCell id="B4z7yMbb7oqRhIw1RZV_-15" value="- validateurDesigne" style="text;align=left;verticalAlign=top;spacingLeft=4;spacingRight=4;overflow=hidden;rotatable=0;points=[[0,0.5],[1,0.5]];portConstraint=eastwest;" vertex="1" parent="zkfFHV4jXpPFQw0GAbJ--0">
          <mxGeometry y="82" width="210" height="26" as="geometry" />
        </mxCell>
        <mxCell id="B4z7yMbb7oqRhIw1RZV_-16" value="- validateur" style="text;align=left;verticalAlign=top;spacingLeft=4;spacingRight=4;overflow=hidden;rotatable=0;points=[[0,0.5],[1,0.5]];portConstraint=eastwest;" vertex="1" parent="zkfFHV4jXpPFQw0GAbJ--0">
          <mxGeometry y="108" width="210" height="26" as="geometry" />
        </mxCell>
        <mxCell id="B4z7yMbb7oqRhIw1RZV_-17" value="- approbateurDesigne" style="text;align=left;verticalAlign=top;spacingLeft=4;spacingRight=4;overflow=hidden;rotatable=0;points=[[0,0.5],[1,0.5]];portConstraint=eastwest;" vertex="1" parent="zkfFHV4jXpPFQw0GAbJ--0">
          <mxGeometry y="134" width="210" height="26" as="geometry" />
        </mxCell>
        <mxCell id="B4z7yMbb7oqRhIw1RZV_-18" value="- approbateur" style="text;align=left;verticalAlign=top;spacingLeft=4;spacingRight=4;overflow=hidden;rotatable=0;points=[[0,0.5],[1,0.5]];portConstraint=eastwest;" vertex="1" parent="zkfFHV4jXpPFQw0GAbJ--0">
          <mxGeometry y="160" width="210" height="26" as="geometry" />
        </mxCell>
        <mxCell id="B4z7yMbb7oqRhIw1RZV_-19" value="- rejeteur" style="text;align=left;verticalAlign=top;spacingLeft=4;spacingRight=4;overflow=hidden;rotatable=0;points=[[0,0.5],[1,0.5]];portConstraint=eastwest;" vertex="1" parent="zkfFHV4jXpPFQw0GAbJ--0">
          <mxGeometry y="186" width="210" height="26" as="geometry" />
        </mxCell>
        <mxCell id="B4z7yMbb7oqRhIw1RZV_-20" value="- status" style="text;align=left;verticalAlign=top;spacingLeft=4;spacingRight=4;overflow=hidden;rotatable=0;points=[[0,0.5],[1,0.5]];portConstraint=eastwest;" vertex="1" parent="zkfFHV4jXpPFQw0GAbJ--0">
          <mxGeometry y="212" width="210" height="26" as="geometry" />
        </mxCell>
        <mxCell id="B4z7yMbb7oqRhIw1RZV_-21" value="- dateCreation" style="text;align=left;verticalAlign=top;spacingLeft=4;spacingRight=4;overflow=hidden;rotatable=0;points=[[0,0.5],[1,0.5]];portConstraint=eastwest;" vertex="1" parent="zkfFHV4jXpPFQw0GAbJ--0">
          <mxGeometry y="238" width="210" height="26" as="geometry" />
        </mxCell>
        <mxCell id="B4z7yMbb7oqRhIw1RZV_-22" value="- dateValidation" style="text;align=left;verticalAlign=top;spacingLeft=4;spacingRight=4;overflow=hidden;rotatable=0;points=[[0,0.5],[1,0.5]];portConstraint=eastwest;" vertex="1" parent="zkfFHV4jXpPFQw0GAbJ--0">
          <mxGeometry y="264" width="210" height="26" as="geometry" />
        </mxCell>
        <mxCell id="B4z7yMbb7oqRhIw1RZV_-23" value="- dateApprobation" style="text;align=left;verticalAlign=top;spacingLeft=4;spacingRight=4;overflow=hidden;rotatable=0;points=[[0,0.5],[1,0.5]];portConstraint=eastwest;" vertex="1" parent="zkfFHV4jXpPFQw0GAbJ--0">
          <mxGeometry y="290" width="210" height="26" as="geometry" />
        </mxCell>
        <mxCell id="B4z7yMbb7oqRhIw1RZV_-24" value="- dateRejet" style="text;align=left;verticalAlign=top;spacingLeft=4;spacingRight=4;overflow=hidden;rotatable=0;points=[[0,0.5],[1,0.5]];portConstraint=eastwest;" vertex="1" parent="zkfFHV4jXpPFQw0GAbJ--0">
          <mxGeometry y="316" width="210" height="26" as="geometry" />
        </mxCell>
        <mxCell id="B4z7yMbb7oqRhIw1RZV_-25" value="-Â matriculeInitiateur" style="text;align=left;verticalAlign=top;spacingLeft=4;spacingRight=4;overflow=hidden;rotatable=0;points=[[0,0.5],[1,0.5]];portConstraint=eastwest;" vertex="1" parent="zkfFHV4jXpPFQw0GAbJ--0">
          <mxGeometry y="342" width="210" height="26" as="geometry" />
        </mxCell>
        <mxCell id="B4z7yMbb7oqRhIw1RZV_-26" value="- matriculeValidateur" style="text;align=left;verticalAlign=top;spacingLeft=4;spacingRight=4;overflow=hidden;rotatable=0;points=[[0,0.5],[1,0.5]];portConstraint=eastwest;" vertex="1" parent="zkfFHV4jXpPFQw0GAbJ--0">
          <mxGeometry y="368" width="210" height="26" as="geometry" />
        </mxCell>
        <mxCell id="B4z7yMbb7oqRhIw1RZV_-27" value="- matriculeApprobateur" style="text;align=left;verticalAlign=top;spacingLeft=4;spacingRight=4;overflow=hidden;rotatable=0;points=[[0,0.5],[1,0.5]];portConstraint=eastwest;" vertex="1" parent="zkfFHV4jXpPFQw0GAbJ--0">
          <mxGeometry y="394" width="210" height="26" as="geometry" />
        </mxCell>
        <mxCell id="B4z7yMbb7oqRhIw1RZV_-28" value="- matriculeRejeteur" style="text;align=left;verticalAlign=top;spacingLeft=4;spacingRight=4;overflow=hidden;rotatable=0;points=[[0,0.5],[1,0.5]];portConstraint=eastwest;" vertex="1" parent="zkfFHV4jXpPFQw0GAbJ--0">
          <mxGeometry y="420" width="210" height="26" as="geometry" />
        </mxCell>
        <mxCell id="B4z7yMbb7oqRhIw1RZV_-29" value="- taskId" style="text;align=left;verticalAlign=top;spacingLeft=4;spacingRight=4;overflow=hidden;rotatable=0;points=[[0,0.5],[1,0.5]];portConstraint=eastwest;" vertex="1" parent="zkfFHV4jXpPFQw0GAbJ--0">
          <mxGeometry y="446" width="210" height="26" as="geometry" />
        </mxCell>
        <mxCell id="B4z7yMbb7oqRhIw1RZV_-30" value="- processId" style="text;align=left;verticalAlign=top;spacingLeft=4;spacingRight=4;overflow=hidden;rotatable=0;points=[[0,0.5],[1,0.5]];portConstraint=eastwest;" vertex="1" parent="zkfFHV4jXpPFQw0GAbJ--0">
          <mxGeometry y="472" width="210" height="26" as="geometry" />
        </mxCell>
        <mxCell id="B4z7yMbb7oqRhIw1RZV_-31" value="- List&lt;Application&gt; applicationList" style="text;align=left;verticalAlign=top;spacingLeft=4;spacingRight=4;overflow=hidden;rotatable=0;points=[[0,0.5],[1,0.5]];portConstraint=eastwest;fontStyle=1" vertex="1" parent="zkfFHV4jXpPFQw0GAbJ--0">
          <mxGeometry y="498" width="210" height="26" as="geometry" />
        </mxCell>
        <mxCell id="B4z7yMbb7oqRhIw1RZV_-32" value="- List&lt;MiseAJour&gt; miseAJourList" style="text;align=left;verticalAlign=top;spacingLeft=4;spacingRight=4;overflow=hidden;rotatable=0;points=[[0,0.5],[1,0.5]];portConstraint=eastwest;fontStyle=1" vertex="1" parent="zkfFHV4jXpPFQw0GAbJ--0">
          <mxGeometry y="524" width="210" height="26" as="geometry" />
        </mxCell>
        <mxCell id="zkfFHV4jXpPFQw0GAbJ--17" value="Application" style="swimlane;fontStyle=0;align=center;verticalAlign=top;childLayout=stackLayout;horizontal=1;startSize=26;horizontalStack=0;resizeParent=1;resizeLast=0;collapsible=1;marginBottom=0;rounded=0;shadow=0;strokeWidth=1;fillColor=#d5e8d4;strokeColor=#82b366;" parent="WIyWlLk6GJQsqaUBKTNV-1" vertex="1">
          <mxGeometry x="520" y="183" width="160" height="100" as="geometry">
            <mxRectangle x="550" y="140" width="160" height="26" as="alternateBounds" />
          </mxGeometry>
        </mxCell>
        <mxCell id="zkfFHV4jXpPFQw0GAbJ--19" value="- id" style="text;align=left;verticalAlign=top;spacingLeft=4;spacingRight=4;overflow=hidden;rotatable=0;points=[[0,0.5],[1,0.5]];portConstraint=eastwest;rounded=0;shadow=0;html=0;" parent="zkfFHV4jXpPFQw0GAbJ--17" vertex="1">
          <mxGeometry y="26" width="160" height="26" as="geometry" />
        </mxCell>
        <mxCell id="zkfFHV4jXpPFQw0GAbJ--20" value="- applicationName" style="text;align=left;verticalAlign=top;spacingLeft=4;spacingRight=4;overflow=hidden;rotatable=0;points=[[0,0.5],[1,0.5]];portConstraint=eastwest;rounded=0;shadow=0;html=0;" parent="zkfFHV4jXpPFQw0GAbJ--17" vertex="1">
          <mxGeometry y="52" width="160" height="26" as="geometry" />
        </mxCell>
        <mxCell id="EOMOwbiBgdImRqvA-wY1-0" value="MiseAJour" style="swimlane;fontStyle=0;align=center;verticalAlign=top;childLayout=stackLayout;horizontal=1;startSize=26;horizontalStack=0;resizeParent=1;resizeLast=0;collapsible=1;marginBottom=0;rounded=0;shadow=0;strokeWidth=1;fillColor=#fff2cc;strokeColor=#d6b656;" parent="WIyWlLk6GJQsqaUBKTNV-1" vertex="1">
          <mxGeometry x="520" y="348" width="160" height="332" as="geometry">
            <mxRectangle x="550" y="140" width="160" height="26" as="alternateBounds" />
          </mxGeometry>
        </mxCell>
        <mxCell id="B4z7yMbb7oqRhIw1RZV_-33" value="- id" style="text;align=left;verticalAlign=top;spacingLeft=4;spacingRight=4;overflow=hidden;rotatable=0;points=[[0,0.5],[1,0.5]];portConstraint=eastwest;rounded=0;shadow=0;html=0;" vertex="1" parent="EOMOwbiBgdImRqvA-wY1-0">
          <mxGeometry y="26" width="160" height="26" as="geometry" />
        </mxCell>
        <mxCell id="B4z7yMbb7oqRhIw1RZV_-35" value="- miseAjourParID" style="text;align=left;verticalAlign=top;spacingLeft=4;spacingRight=4;overflow=hidden;rotatable=0;points=[[0,0.5],[1,0.5]];portConstraint=eastwest;rounded=0;shadow=0;html=0;" vertex="1" parent="EOMOwbiBgdImRqvA-wY1-0">
          <mxGeometry y="52" width="160" height="26" as="geometry" />
        </mxCell>
        <mxCell id="B4z7yMbb7oqRhIw1RZV_-36" value="- miseAjourParNom" style="text;align=left;verticalAlign=top;spacingLeft=4;spacingRight=4;overflow=hidden;rotatable=0;points=[[0,0.5],[1,0.5]];portConstraint=eastwest;rounded=0;shadow=0;html=0;" vertex="1" parent="EOMOwbiBgdImRqvA-wY1-0">
          <mxGeometry y="78" width="160" height="26" as="geometry" />
        </mxCell>
        <mxCell id="B4z7yMbb7oqRhIw1RZV_-37" value="- miseAjourParMatricule" style="text;align=left;verticalAlign=top;spacingLeft=4;spacingRight=4;overflow=hidden;rotatable=0;points=[[0,0.5],[1,0.5]];portConstraint=eastwest;rounded=0;shadow=0;html=0;" vertex="1" parent="EOMOwbiBgdImRqvA-wY1-0">
          <mxGeometry y="104" width="160" height="26" as="geometry" />
        </mxCell>
        <mxCell id="B4z7yMbb7oqRhIw1RZV_-38" value="- dateMiseAjour" style="text;align=left;verticalAlign=top;spacingLeft=4;spacingRight=4;overflow=hidden;rotatable=0;points=[[0,0.5],[1,0.5]];portConstraint=eastwest;rounded=0;shadow=0;html=0;" vertex="1" parent="EOMOwbiBgdImRqvA-wY1-0">
          <mxGeometry y="130" width="160" height="26" as="geometry" />
        </mxCell>
        <mxCell id="B4z7yMbb7oqRhIw1RZV_-39" value="- validateurMAJID" style="text;align=left;verticalAlign=top;spacingLeft=4;spacingRight=4;overflow=hidden;rotatable=0;points=[[0,0.5],[1,0.5]];portConstraint=eastwest;rounded=0;shadow=0;html=0;" vertex="1" parent="EOMOwbiBgdImRqvA-wY1-0">
          <mxGeometry y="156" width="160" height="26" as="geometry" />
        </mxCell>
        <mxCell id="B4z7yMbb7oqRhIw1RZV_-40" value="- validateurMAJNom" style="text;align=left;verticalAlign=top;spacingLeft=4;spacingRight=4;overflow=hidden;rotatable=0;points=[[0,0.5],[1,0.5]];portConstraint=eastwest;rounded=0;shadow=0;html=0;" vertex="1" parent="EOMOwbiBgdImRqvA-wY1-0">
          <mxGeometry y="182" width="160" height="26" as="geometry" />
        </mxCell>
        <mxCell id="B4z7yMbb7oqRhIw1RZV_-41" value="- validateurMAJMatricule" style="text;align=left;verticalAlign=top;spacingLeft=4;spacingRight=4;overflow=hidden;rotatable=0;points=[[0,0.5],[1,0.5]];portConstraint=eastwest;rounded=0;shadow=0;html=0;" vertex="1" parent="EOMOwbiBgdImRqvA-wY1-0">
          <mxGeometry y="208" width="160" height="26" as="geometry" />
        </mxCell>
        <mxCell id="B4z7yMbb7oqRhIw1RZV_-42" value="- approbateurMAJID" style="text;align=left;verticalAlign=top;spacingLeft=4;spacingRight=4;overflow=hidden;rotatable=0;points=[[0,0.5],[1,0.5]];portConstraint=eastwest;rounded=0;shadow=0;html=0;" vertex="1" parent="EOMOwbiBgdImRqvA-wY1-0">
          <mxGeometry y="234" width="160" height="26" as="geometry" />
        </mxCell>
        <mxCell id="B4z7yMbb7oqRhIw1RZV_-43" value="- approbateurMAJNom" style="text;align=left;verticalAlign=top;spacingLeft=4;spacingRight=4;overflow=hidden;rotatable=0;points=[[0,0.5],[1,0.5]];portConstraint=eastwest;rounded=0;shadow=0;html=0;" vertex="1" parent="EOMOwbiBgdImRqvA-wY1-0">
          <mxGeometry y="260" width="160" height="26" as="geometry" />
        </mxCell>
        <mxCell id="B4z7yMbb7oqRhIw1RZV_-44" value="- approbateurMAJMatricule" style="text;align=left;verticalAlign=top;spacingLeft=4;spacingRight=4;overflow=hidden;rotatable=0;points=[[0,0.5],[1,0.5]];portConstraint=eastwest;rounded=0;shadow=0;html=0;" vertex="1" parent="EOMOwbiBgdImRqvA-wY1-0">
          <mxGeometry y="286" width="160" height="26" as="geometry" />
        </mxCell>
        <mxCell id="B4z7yMbb7oqRhIw1RZV_-8" value="&lt;div style=&quot;background-color: rgb(22, 28, 45); color: rgb(168, 175, 190); font-family: &amp;quot;JetBrains Mono&amp;quot;, monospace;&quot;&gt;&lt;br&gt;&lt;br&gt;&lt;/div&gt;" style="text;html=1;align=left;verticalAlign=middle;resizable=0;points=[];autosize=1;strokeColor=none;fillColor=none;" vertex="1" parent="WIyWlLk6GJQsqaUBKTNV-1">
          <mxGeometry x="60" y="243" width="20" height="40" as="geometry" />
        </mxCell>
        <mxCell id="B4z7yMbb7oqRhIw1RZV_-46" value="" style="endArrow=diamondThin;endFill=1;endSize=24;html=1;rounded=0;fontSize=11;curved=1;exitX=0.004;exitY=0.862;exitDx=0;exitDy=0;entryX=1;entryY=0.5;entryDx=0;entryDy=0;exitPerimeter=0;" edge="1" parent="WIyWlLk6GJQsqaUBKTNV-1">
          <mxGeometry width="160" relative="1" as="geometry">
            <mxPoint x="519.9999999999999" y="241.57199999999992" as="sourcePoint" />
            <mxPoint x="339.3599999999998" y="242.16" as="targetPoint" />
          </mxGeometry>
        </mxCell>
        <mxCell id="B4z7yMbb7oqRhIw1RZV_-50" value="1" style="text;html=1;align=center;verticalAlign=middle;resizable=0;points=[];autosize=1;strokeColor=none;fillColor=none;fontSize=16;" vertex="1" parent="WIyWlLk6GJQsqaUBKTNV-1">
          <mxGeometry x="335" y="398" width="30" height="30" as="geometry" />
        </mxCell>
        <mxCell id="B4z7yMbb7oqRhIw1RZV_-51" value="can have" style="text;html=1;align=center;verticalAlign=middle;resizable=0;points=[];autosize=1;strokeColor=none;fillColor=none;fontSize=10;" vertex="1" parent="WIyWlLk6GJQsqaUBKTNV-1">
          <mxGeometry x="400" y="398" width="60" height="30" as="geometry" />
        </mxCell>
        <mxCell id="B4z7yMbb7oqRhIw1RZV_-52" value="0.*" style="text;html=1;align=center;verticalAlign=middle;resizable=0;points=[];autosize=1;strokeColor=none;fillColor=none;fontSize=16;" vertex="1" parent="WIyWlLk6GJQsqaUBKTNV-1">
          <mxGeometry x="480" y="398" width="40" height="30" as="geometry" />
        </mxCell>
        <mxCell id="B4z7yMbb7oqRhIw1RZV_-53" value="1" style="text;html=1;align=center;verticalAlign=middle;resizable=0;points=[];autosize=1;strokeColor=none;fillColor=none;fontSize=16;" vertex="1" parent="WIyWlLk6GJQsqaUBKTNV-1">
          <mxGeometry x="335" y="190" width="30" height="30" as="geometry" />
        </mxCell>
        <mxCell id="B4z7yMbb7oqRhIw1RZV_-54" value="&lt;font style=&quot;font-size: 10px;&quot;&gt;can have&lt;/font&gt;" style="text;html=1;align=center;verticalAlign=middle;resizable=0;points=[];autosize=1;strokeColor=none;fillColor=none;fontSize=10;" vertex="1" parent="WIyWlLk6GJQsqaUBKTNV-1">
          <mxGeometry x="400" y="190" width="60" height="30" as="geometry" />
        </mxCell>
        <mxCell id="B4z7yMbb7oqRhIw1RZV_-55" value="1.*" style="text;html=1;align=center;verticalAlign=middle;resizable=0;points=[];autosize=1;strokeColor=none;fillColor=none;fontSize=16;" vertex="1" parent="WIyWlLk6GJQsqaUBKTNV-1">
          <mxGeometry x="480" y="190" width="40" height="30" as="geometry" />
        </mxCell>
        <mxCell id="B4z7yMbb7oqRhIw1RZV_-69" value="Utilisateur" style="swimlane;fontStyle=0;align=center;verticalAlign=top;childLayout=stackLayout;horizontal=1;startSize=26;horizontalStack=0;resizeParent=1;resizeLast=0;collapsible=1;marginBottom=0;rounded=0;shadow=0;strokeWidth=1;fillColor=#fff2cc;strokeColor=#d6b656;" vertex="1" parent="WIyWlLk6GJQsqaUBKTNV-1">
          <mxGeometry x="-280" y="78" width="260" height="310" as="geometry">
            <mxRectangle x="550" y="140" width="160" height="26" as="alternateBounds" />
          </mxGeometry>
        </mxCell>
        <mxCell id="B4z7yMbb7oqRhIw1RZV_-70" value="- id" style="text;align=left;verticalAlign=top;spacingLeft=4;spacingRight=4;overflow=hidden;rotatable=0;points=[[0,0.5],[1,0.5]];portConstraint=eastwest;rounded=0;shadow=0;html=0;" vertex="1" parent="B4z7yMbb7oqRhIw1RZV_-69">
          <mxGeometry y="26" width="260" height="26" as="geometry" />
        </mxCell>
        <mxCell id="B4z7yMbb7oqRhIw1RZV_-71" value="- userName" style="text;align=left;verticalAlign=top;spacingLeft=4;spacingRight=4;overflow=hidden;rotatable=0;points=[[0,0.5],[1,0.5]];portConstraint=eastwest;rounded=0;shadow=0;html=0;" vertex="1" parent="B4z7yMbb7oqRhIw1RZV_-69">
          <mxGeometry y="52" width="260" height="26" as="geometry" />
        </mxCell>
        <mxCell id="B4z7yMbb7oqRhIw1RZV_-72" value="- email" style="text;align=left;verticalAlign=top;spacingLeft=4;spacingRight=4;overflow=hidden;rotatable=0;points=[[0,0.5],[1,0.5]];portConstraint=eastwest;rounded=0;shadow=0;html=0;" vertex="1" parent="B4z7yMbb7oqRhIw1RZV_-69">
          <mxGeometry y="78" width="260" height="26" as="geometry" />
        </mxCell>
        <mxCell id="B4z7yMbb7oqRhIw1RZV_-73" value="- matricule" style="text;align=left;verticalAlign=top;spacingLeft=4;spacingRight=4;overflow=hidden;rotatable=0;points=[[0,0.5],[1,0.5]];portConstraint=eastwest;rounded=0;shadow=0;html=0;" vertex="1" parent="B4z7yMbb7oqRhIw1RZV_-69">
          <mxGeometry y="104" width="260" height="26" as="geometry" />
        </mxCell>
        <mxCell id="B4z7yMbb7oqRhIw1RZV_-74" value="- dateEmbauche" style="text;align=left;verticalAlign=top;spacingLeft=4;spacingRight=4;overflow=hidden;rotatable=0;points=[[0,0.5],[1,0.5]];portConstraint=eastwest;rounded=0;shadow=0;html=0;" vertex="1" parent="B4z7yMbb7oqRhIw1RZV_-69">
          <mxGeometry y="130" width="260" height="26" as="geometry" />
        </mxCell>
        <mxCell id="B4z7yMbb7oqRhIw1RZV_-75" value="- fonction" style="text;align=left;verticalAlign=top;spacingLeft=4;spacingRight=4;overflow=hidden;rotatable=0;points=[[0,0.5],[1,0.5]];portConstraint=eastwest;rounded=0;shadow=0;html=0;" vertex="1" parent="B4z7yMbb7oqRhIw1RZV_-69">
          <mxGeometry y="156" width="260" height="26" as="geometry" />
        </mxCell>
        <mxCell id="B4z7yMbb7oqRhIw1RZV_-76" value="- service" style="text;align=left;verticalAlign=top;spacingLeft=4;spacingRight=4;overflow=hidden;rotatable=0;points=[[0,0.5],[1,0.5]];portConstraint=eastwest;rounded=0;shadow=0;html=0;" vertex="1" parent="B4z7yMbb7oqRhIw1RZV_-69">
          <mxGeometry y="182" width="260" height="26" as="geometry" />
        </mxCell>
        <mxCell id="B4z7yMbb7oqRhIw1RZV_-77" value="- grade" style="text;align=left;verticalAlign=top;spacingLeft=4;spacingRight=4;overflow=hidden;rotatable=0;points=[[0,0.5],[1,0.5]];portConstraint=eastwest;rounded=0;shadow=0;html=0;" vertex="1" parent="B4z7yMbb7oqRhIw1RZV_-69">
          <mxGeometry y="208" width="260" height="26" as="geometry" />
        </mxCell>
        <mxCell id="B4z7yMbb7oqRhIw1RZV_-88" value="- List&lt;Role&gt; roleList" style="text;align=left;verticalAlign=top;spacingLeft=4;spacingRight=4;overflow=hidden;rotatable=0;points=[[0,0.5],[1,0.5]];portConstraint=eastwest;fontStyle=1" vertex="1" parent="B4z7yMbb7oqRhIw1RZV_-69">
          <mxGeometry y="234" width="260" height="26" as="geometry" />
        </mxCell>
        <mxCell id="B4z7yMbb7oqRhIw1RZV_-91" value="- List&lt;DemandeHabilitation&gt; demandeList" style="text;align=left;verticalAlign=top;spacingLeft=4;spacingRight=4;overflow=hidden;rotatable=0;points=[[0,0.5],[1,0.5]];portConstraint=eastwest;fontStyle=1" vertex="1" parent="B4z7yMbb7oqRhIw1RZV_-69">
          <mxGeometry y="260" width="260" height="26" as="geometry" />
        </mxCell>
        <mxCell id="B4z7yMbb7oqRhIw1RZV_-81" value="Role" style="swimlane;fontStyle=0;align=center;verticalAlign=top;childLayout=stackLayout;horizontal=1;startSize=26;horizontalStack=0;resizeParent=1;resizeLast=0;collapsible=1;marginBottom=0;rounded=0;shadow=0;strokeWidth=1;fillColor=#d5e8d4;strokeColor=#82b366;" vertex="1" parent="WIyWlLk6GJQsqaUBKTNV-1">
          <mxGeometry x="-280" y="560" width="260" height="120" as="geometry">
            <mxRectangle x="550" y="140" width="160" height="26" as="alternateBounds" />
          </mxGeometry>
        </mxCell>
        <mxCell id="B4z7yMbb7oqRhIw1RZV_-82" value="- id" style="text;align=left;verticalAlign=top;spacingLeft=4;spacingRight=4;overflow=hidden;rotatable=0;points=[[0,0.5],[1,0.5]];portConstraint=eastwest;rounded=0;shadow=0;html=0;" vertex="1" parent="B4z7yMbb7oqRhIw1RZV_-81">
          <mxGeometry y="26" width="260" height="26" as="geometry" />
        </mxCell>
        <mxCell id="B4z7yMbb7oqRhIw1RZV_-83" value="- applicationName" style="text;align=left;verticalAlign=top;spacingLeft=4;spacingRight=4;overflow=hidden;rotatable=0;points=[[0,0.5],[1,0.5]];portConstraint=eastwest;rounded=0;shadow=0;html=0;" vertex="1" parent="B4z7yMbb7oqRhIw1RZV_-81">
          <mxGeometry y="52" width="260" height="26" as="geometry" />
        </mxCell>
        <mxCell id="B4z7yMbb7oqRhIw1RZV_-89" value="- List&lt;Utilisateur&gt; utilisateurList" style="text;align=left;verticalAlign=top;spacingLeft=4;spacingRight=4;overflow=hidden;rotatable=0;points=[[0,0.5],[1,0.5]];portConstraint=eastwest;fontStyle=1" vertex="1" parent="B4z7yMbb7oqRhIw1RZV_-81">
          <mxGeometry y="78" width="260" height="26" as="geometry" />
        </mxCell>
        <mxCell id="B4z7yMbb7oqRhIw1RZV_-84" value="" style="endArrow=block;startArrow=block;endFill=1;startFill=1;html=1;rounded=0;fontSize=12;startSize=8;endSize=8;curved=1;exitX=0;exitY=0;exitDx=0;exitDy=0;exitPerimeter=0;entryX=0.538;entryY=0;entryDx=0;entryDy=0;entryPerimeter=0;" edge="1" parent="WIyWlLk6GJQsqaUBKTNV-1" source="B4z7yMbb7oqRhIw1RZV_-85" target="B4z7yMbb7oqRhIw1RZV_-81">
          <mxGeometry width="160" relative="1" as="geometry">
            <mxPoint x="-170" y="410" as="sourcePoint" />
            <mxPoint x="-140" y="550" as="targetPoint" />
          </mxGeometry>
        </mxCell>
        <mxCell id="B4z7yMbb7oqRhIw1RZV_-85" value="0.*" style="text;html=1;align=center;verticalAlign=middle;resizable=0;points=[];autosize=1;strokeColor=none;fillColor=none;fontSize=16;" vertex="1" parent="WIyWlLk6GJQsqaUBKTNV-1">
          <mxGeometry x="-140" y="388" width="40" height="30" as="geometry" />
        </mxCell>
        <mxCell id="B4z7yMbb7oqRhIw1RZV_-86" value="0.*" style="text;html=1;align=center;verticalAlign=middle;resizable=0;points=[];autosize=1;strokeColor=none;fillColor=none;fontSize=16;" vertex="1" parent="WIyWlLk6GJQsqaUBKTNV-1">
          <mxGeometry x="-190" y="520" width="40" height="30" as="geometry" />
        </mxCell>
        <mxCell id="B4z7yMbb7oqRhIw1RZV_-92" value="" style="endArrow=none;html=1;edgeStyle=orthogonalEdgeStyle;rounded=0;fontSize=12;startSize=8;endSize=8;curved=1;exitX=1.013;exitY=0.164;exitDx=0;exitDy=0;exitPerimeter=0;" edge="1" parent="WIyWlLk6GJQsqaUBKTNV-1" source="B4z7yMbb7oqRhIw1RZV_-24">
          <mxGeometry relative="1" as="geometry">
            <mxPoint x="350" y="440" as="sourcePoint" />
            <mxPoint x="520" y="440" as="targetPoint" />
          </mxGeometry>
        </mxCell>
        <mxCell id="B4z7yMbb7oqRhIw1RZV_-95" value="" style="endArrow=none;html=1;edgeStyle=orthogonalEdgeStyle;rounded=0;fontSize=12;startSize=8;endSize=8;curved=1;exitX=1.014;exitY=0.885;exitDx=0;exitDy=0;exitPerimeter=0;entryX=-0.019;entryY=0.151;entryDx=0;entryDy=0;entryPerimeter=0;" edge="1" parent="WIyWlLk6GJQsqaUBKTNV-1" source="B4z7yMbb7oqRhIw1RZV_-74" target="B4z7yMbb7oqRhIw1RZV_-16">
          <mxGeometry relative="1" as="geometry">
            <mxPoint x="-10" y="232.58" as="sourcePoint" />
            <mxPoint x="100" y="232.58" as="targetPoint" />
          </mxGeometry>
        </mxCell>
        <mxCell id="B4z7yMbb7oqRhIw1RZV_-96" value="1" style="edgeLabel;resizable=0;html=1;align=left;verticalAlign=bottom;fontSize=16;" connectable="0" vertex="1" parent="B4z7yMbb7oqRhIw1RZV_-95">
          <mxGeometry x="-1" relative="1" as="geometry" />
        </mxCell>
        <mxCell id="B4z7yMbb7oqRhIw1RZV_-97" value="0.*" style="edgeLabel;resizable=0;html=1;align=right;verticalAlign=bottom;fontSize=16;" connectable="0" vertex="1" parent="B4z7yMbb7oqRhIw1RZV_-95">
          <mxGeometry x="1" relative="1" as="geometry" />
        </mxCell>
      </root>
    </mxGraphModel>
  </diagram>
</mxfile>
